<svg xmlns="http://www.w3.org/2000/svg" fill="none" viewBox="-0.75 -0.75 24 24" id="Book-Outline--Streamline-Ionic-Outline" height="24" width="24"><desc>Book Outline Streamline Icon: https://streamlinehq.com</desc><path stroke="#000000" stroke-linecap="round" stroke-linejoin="round" d="M11.24990625 7.031484375000001c0.703125 -2.7755859375 3.358734375 -4.1928234374999995 9.140625 -4.21875 0.09243749999999999 -0.000346875 0.18403125 0.0176015625 0.269484375 0.0528140625 0.08545312499999999 0.0352125 0.163125 0.086990625 0.228515625 0.15234843750000002 0.06534374999999999 0.0653625 0.11709375 0.1430109375 0.152296875 0.228478125 0.035250000000000004 0.08546250000000001 0.053203125000000004 0.17705156249999998 0.052828125 0.269484375v12.65625c0 0.186515625 -0.07410937499999999 0.36534374999999997 -0.205921875 0.49720312499999997 -0.13190625 0.131859375 -0.31068749999999995 0.205921875 -0.49720312499999997 0.205921875 -5.625 0 -7.798125 1.1342343750000001 -9.140625 2.8125 -1.334625 -1.669921875 -3.515625 -2.8125 -9.1406390625 -2.8125 -0.4341796875 0 -0.703125 -0.35376562500000003 -0.703125 -0.787921875V3.515859375c-0.000346875 -0.0924328125 0.017596874999999998 -0.184021875 0.0528140625 -0.269484375 0.0352078125 -0.0854671875 0.0869859375 -0.16311562500000001 0.15234843750000002 -0.228478125 0.0653578125 -0.0653578125 0.1430109375 -0.1171359375 0.22847343750000002 -0.15234843750000002 0.0854671875 -0.0352125 0.17705156249999998 -0.0531609375 0.26948906250000004 -0.0528140625 5.7819046875 0.0259265625 8.4375140625 1.4431640625 9.1406390625 4.21875Z" stroke-width="1.5"></path><path stroke="#000000" stroke-linecap="round" stroke-linejoin="round" d="M11.24990625 7.03134375v12.656296875" stroke-width="1.5"></path></svg>