<svg xmlns="http://www.w3.org/2000/svg" viewBox="0 0 24 24" fill="#000000" id="Campfire-Thin--Streamline-Phosphor-Thin" height="24" width="24"><desc>Campfire Thin Streamline Icon: https://streamlinehq.com</desc><path d="M22.79655 23.431903125c-0.06196875 0.1952625 -0.24317812500000002 0.327965625 -0.44804062499999997 0.32809687499999995 -0.048309375 0.00005625 -0.09632812500000001 -0.007490625 -0.14229375 -0.022340625000000003L12 20.490815625l-10.206215624999999 3.24684375c-0.045965625 0.014859375000000001 -0.093984375 0.022396875 -0.14229375 0.022340625000000003 -0.3621 -0.0007406250000000001 -0.587625 -0.3931875 -0.40592812500000003 -0.70640625 0.05853749999999999 -0.10093125 0.15250312500000002 -0.17649375 0.263634375 -0.21202500000000002l8.937346875 -2.844665625 -8.937346875 -2.844665625c-0.348759375 -0.09738749999999999 -0.46130625000000003 -0.535809375 -0.202575 -0.789140625 0.12856875 -0.125896875 0.31768124999999997 -0.167409375 0.48716249999999994 -0.10694062500000001L12 19.503l10.206215624999999 -3.24684375c0.341053125 -0.121678125 0.68593125 0.171459375 0.6207843749999999 0.5276625 -0.03238125 0.177 -0.162890625 0.320025 -0.336196875 0.36841875l-8.937346875 2.844665625 8.937346875 2.844665625c0.24733125 0.078721875 0.38415937499999997 0.3429 0.305746875 0.590334375ZM5.4145875 9.64839375c0 -2.234334375 1.103053125 -4.568634375 3.189215625 -6.7347656250000005 0.94678125 -0.9853875 2.003428125 -1.858959375 3.149240625 -2.6035874999999997 0.151396875 -0.09338437499999999 0.342515625 -0.09338437499999999 0.4939125 0 1.1458125 0.744628125 2.202459375 1.6181999999999999 3.149240625 2.6035874999999997 2.0861625000000004 2.16613125 3.189215625 4.50043125 3.189215625 6.7347656250000005 0.00118125 3.5719031249999995 -2.84535 6.4935656250000005 -6.416071875 6.5854125h-0.33868125c-3.570721875 -0.091846875 -6.417253125 -3.013509375 -6.416071875 -6.5854125ZM12 15.293034375c1.298934375 0 2.351934375 -1.052990625 2.351934375 -2.351934375 0 -2.04500625 -1.6898625000000003 -3.5902218749999997 -2.351934375 -4.115878125 -0.662071875 0.526828125 -2.351934375 2.072053125 -2.351934375 4.115878125 0 1.2989437499999998 1.053 2.351934375 2.351934375 2.351934375Zm-5.644640625 -5.644640625c0.0006187499999999999 1.9809375 1.0396125 3.8165718749999997 2.73765 4.83675 -0.253659375 -0.47509687500000003 -0.38615625 -1.005459375 -0.385715625 -1.54404375 0 -3.0386999999999995 2.9081625 -5.0131499999999996 3.0316406249999996 -5.0954625 0.158071875 -0.105459375 0.364059375 -0.105459375 0.5221312499999999 0 0.123478125 0.082321875 3.0316406249999996 2.0567625 3.0316406249999996 5.0954625 0.00044062500000000004 0.538584375 -0.13205625000000001 1.068946875 -0.385715625 1.54404375 1.6980375 -1.020178125 2.7370312500000002 -2.8558125 2.73765 -4.83675 0 -4.276987500000001 -4.526296875 -7.6155656249999995 -5.644640625 -8.374059375 -1.117171875 0.7596749999999999 -5.644640625 4.10295 -5.644640625 8.374059375Z" stroke-width="0.0938"></path></svg>