<svg xmlns="http://www.w3.org/2000/svg" viewBox="0 0 24 24" fill="#000000" id="Cloud-Moon-Thin--Streamline-Phosphor-Thin" height="24" width="24"><desc>Cloud Moon Thin Streamline Icon: https://streamlinehq.com</desc><path d="M16.14470625 7.68365625c-0.5694843749999999 0.0003375 -1.13713125 0.06455625 -1.692290625 0.19143749999999998 -0.104146875 -3.262040625 -2.3916843749999996 -6.0450375 -5.5718625 -6.7786687500000005 -0.30451875 -0.069721875 -0.57699375 0.20330625000000002 -0.506625 0.507684375 1.05346875 4.572 -3.043303125 8.668771875 -7.6153031250000005 7.6153031250000005 -0.30493125 -0.07069687499999999 -0.578371875 0.202753125 -0.507684375 0.507684375 0.472528125 2.031075 1.8009093750000003 3.75826875 3.642646875 4.7362875 -2.59730625 2.920246875 -1.0593656249999999 7.557065625 2.7682875 8.34628125 0.33605625 0.069290625 0.6782625 0.10433437500000001 1.0213875 0.1045875h8.461434375c5.8622625 0 9.526171875 -6.346078125 6.5950500000000005 -11.42295 -1.36035 -2.35618125 -3.874359375 -3.8076468749999997 -6.5950500000000005 -3.8076468749999997Zm-14.89003125 2.4792c0.307978125 0.039346875 0.6181687499999999 0.0591375 0.92865 0.05923125 3.9704625 -0.004078125 7.188140625000001 -3.2217562500000003 7.19221875 -7.19221875 -0.00013125 -0.310846875 -0.0199125 -0.621365625 -0.05923125 -0.9297093750000001 2.574009375 0.8698125000000001 4.30224375 3.289603125 4.289953125 6.006571875v0.011634375c-2.223215625 0.7852125000000001 -3.959653125 2.5524750000000003 -4.7056125 4.789171875 -0.398428125 -0.097725 -0.807159375 -0.147084375 -1.217390625 -0.147009375 -1.1362875 -0.0008812500000000001 -2.23966875 0.381440625 -3.13179375 1.085175 -1.5499593750000003 -0.73366875 -2.73853125 -2.0614218749999997 -3.29679375 -3.682846875Zm14.89003125 11.90525625H7.6832625000000005c-3.2568187500000003 -0.0025125 -5.2896093749999995 -3.529678125 -3.659025 -6.348909375 0.938765625 -1.6230937499999998 2.8338843750000002 -2.43466875 4.6564125 -1.994071875 -0.07854375 0.37115625 -0.12910312499999999 0.7476937499999999 -0.151246875 1.126425 -0.01873125 0.325678125 0.322125 0.54950625 0.6135375000000001 0.40288124999999997 0.13524375 -0.06804375 0.2239125 -0.20308125 0.23260312500000002 -0.354225 0.025668749999999997 -0.45262500000000006 0.096534375 -0.9015562500000001 0.21153750000000002 -1.34008125 0 -0.01269375 0.00740625 -0.0253875 0.009515625 -0.03808125 1.3629843750000001 -5.03454375 7.66490625 -6.705665625 11.343459375 -3.008025 3.6785625 3.6976500000000003 1.9748343750000001 9.990834375 -3.066703125 11.3277375 -0.564065625 0.149578125 -1.145090625 0.22565625 -1.728646875 0.22635Z" stroke-width="0.0938"></path></svg>