<svg xmlns="http://www.w3.org/2000/svg" viewBox="0 0 24 24" fill="#000000" id="Clover-Thin--Streamline-Phosphor-Thin" height="24" width="24"><desc>Clover Thin Streamline Icon: https://streamlinehq.com</desc><path d="M20.61735 15.1374C21.87 14.5956 22.5 13.11615 22.5 10.74s-0.63 -3.8556 -1.8826500000000002 -4.3974c-1.32195 -0.57225 -3.23715 -0.04095 -5.693099999999999 1.5750000000000002l-0.315 0.21000000000000002 0.21000000000000002 -0.315c1.61805 -2.45595 2.14935 -4.37115 1.5750000000000002 -5.693099999999999C15.855599999999999 0.8699999999999999 14.376149999999999 0.24 12 0.24S8.1444 0.8699999999999999 7.602599999999999 2.12265c-0.57225 1.32195 -0.04095 3.23715 1.5750000000000002 5.693099999999999q0.10500000000000001 0.16065000000000002 0.21000000000000002 0.315l-0.315 -0.21000000000000002c-2.45595 -1.61805 -4.37115 -2.14935 -5.693099999999999 -1.5750000000000002C2.13 6.884399999999999 1.5 8.36385 1.5 10.74s0.63 3.8556 1.8826500000000002 4.3974c0.365625 0.152746875 0.758803125 0.22852500000000003 1.155 0.22260000000000002 1.2033 0 2.73 -0.60165 4.5423 -1.7997l0.315 -0.21000000000000002 -0.21000000000000002 0.315c-1.61805 2.45595 -2.14935 4.37115 -1.5750000000000002 5.69205C8.1444 20.61 9.62385 21.240000000000002 12 21.240000000000002s3.8556 -0.63 4.3974 -1.8837000000000002c0.40005 -0.9239999999999999 0.25934999999999997 -2.14095 -0.41475000000000006 -3.6288 1.6432499999999999 2.1525 3.29805 4.8678 4.00995 7.717499999999999 0.04794374999999999 0.18569999999999998 0.21560625 0.3153375 0.4074 0.315 0.03538125 0.00014062500000000002 0.07065 -0.004096875 0.10500000000000001 -0.0126 0.22498125 -0.056287500000000004 0.3617625 -0.284259375 0.30555 -0.50925 -0.88305 -3.5332500000000002 -3.09225 -6.8019 -5.04 -9.156 1.4511 0.84945 2.6901 1.27785 3.7023 1.27785 0.392671875 0.00448125 0.7821281250000001 -0.07126874999999999 1.1445 -0.22260000000000002ZM8.37435 2.45655C8.770199999999999 1.54305 9.9903 1.08 12 1.08s3.2298 0.46304999999999996 3.6256500000000003 1.37655c0.86205 1.9887000000000001 -2.0853 5.92305 -3.6256500000000003 7.665000000000001 -1.5403499999999999 -1.74195 -4.4877 -5.6762999999999995 -3.6256500000000003 -7.665000000000001ZM3.71655 14.365649999999999C2.80305 13.9698 2.34 12.7497 2.34 10.74s0.46304999999999996 -3.2298 1.37655 -3.6256500000000003c0.259453125 -0.107315625 0.5382843749999999 -0.15986250000000002 0.8190000000000001 -0.15435000000000001 2.1084 0 5.3193 2.43075 6.84075 3.7800000000000002 -1.7367 1.5403499999999999 -5.67105 4.4877 -7.659749999999999 3.6256500000000003Zm11.9091 4.6578C15.229800000000001 19.93695 14.0097 20.4 12 20.4s-3.2298 -0.46304999999999996 -3.6256500000000003 -1.37655C7.512300000000001 17.04 10.45965 13.100399999999999 12 11.3637c1.5403499999999999 1.7367 4.4877 5.6762999999999995 3.6256500000000003 7.659749999999999Zm-2.9841 -8.2677 -0.011550000000000001 -0.01575c1.7367 -1.5414 5.67 -4.4887500000000005 7.6587000000000005 -3.6256500000000003 0.90825 0.39585000000000004 1.3713 1.6159499999999998 1.3713 3.6256500000000003s-0.46304999999999996 3.2298 -1.37655 3.6256500000000003c-1.98345 0.8589 -5.8968 -2.06535 -7.6419 -3.6099Z" stroke-width="0.0938"></path></svg>