<svg xmlns="http://www.w3.org/2000/svg" fill="none" viewBox="0 0 24 24" id="Dark-Mode--Streamline-Rounded-Material" height="24" width="24"><desc>Dark Mode Streamline Icon: https://streamlinehq.com</desc><path fill="#000000" d="M12 21.0001c-2.5 0 -4.625 -0.875 -6.375 -2.625S3 14.5001 3 12.0001c0 -2.25 0.6625 -4.1583 1.9875 -5.725C6.3125 4.70844 8.05 3.70011 10.2 3.25011c0.33335 -0.083335 0.61665 -0.09167 0.85 -0.025 0.23335 0.066665 0.41665 0.191665 0.55 0.375 0.13335 0.166665 0.19585 0.375 0.1875 0.625 -0.00835 0.25 -0.07915 0.541665 -0.2125 0.87499 -0.15 0.38335 -0.26665 0.775 -0.35 1.175 -0.08335 0.4 -0.125 0.80835 -0.125 1.225 0 1.5 0.525 2.775 1.575 3.825 1.05 1.05 2.325 1.575 3.825 1.575 0.41665 0 0.82085 -0.0375 1.2125 -0.1125 0.39165 -0.075 0.77085 -0.17915 1.1375 -0.3125 0.36665 -0.13335 0.68335 -0.19165 0.95 -0.175 0.26665 0.0167 0.48335 0.0917 0.65 0.225 0.16665 0.13335 0.275 0.325 0.325 0.575 0.05 0.25 0.03335 0.55 -0.05 0.9 -0.45 2.0167 -1.45835 3.6875 -3.025 5.0125 -1.56665 1.325 -3.46665 1.9875 -5.7 1.9875Zm0 -1.5c1.81665 0 3.4 -0.5625 4.75 -1.6875s2.19165 -2.4458 2.525 -3.9625c-0.41665 0.18335 -0.8625 0.32085 -1.3375 0.4125 -0.475 0.09165 -0.95415 0.1375 -1.4375 0.1375 -1.91665 0 -3.54585 -0.67085 -4.8875 -2.0125 -1.34165 -1.34165 -2.0125 -2.9708 -2.0125 -4.8875 0 -0.4 0.04165 -0.82915 0.125 -1.2875 0.08335 -0.4583 0.23335 -0.97915 0.45 -1.56249 -1.63335 0.44999 -2.9875 1.36249 -4.0625 2.73749 -1.075 1.375 -1.6125 2.9125 -1.6125 4.6125 0 2.08335 0.72915 3.85415 2.1875 5.3125 1.45835 1.45835 3.22915 2.1875 5.3125 2.1875Z" stroke-width="0.5"></path></svg>