<svg xmlns="http://www.w3.org/2000/svg" viewBox="0 0 24 24" fill="#000000" id="Feather-Thin--Streamline-Phosphor-Thin" height="24" width="24"><desc>Feather Thin Streamline Icon: https://streamlinehq.com</desc><path d="M23.75998125 7.024490624999999c-0.00024375 -5.222746875 -5.654175 -8.486690625 -10.177078125 -5.87510625 -0.51260625 0.295978125 -0.98428125 0.657778125 -1.402996875 1.076175l-7.92320625 7.832746875c-0.255609375 0.253509375 -0.3989625 0.598875 -0.39802499999999996 0.958884375v8.480671874999999L0.372553125 22.987378125c-0.24633750000000001 0.24633750000000001 -0.13363125 0.666965625 0.20287500000000003 0.757134375 0.15616875 0.041840625 0.3228 -0.002803125 0.437128125 -0.11713125l3.486121875 -3.486121875h8.480671874999999c0.3595875 -0.00001875 0.704475 -0.142771875 0.958884375 -0.39689062500000005l7.7863875 -7.87685625 0.045234375 -0.045225c1.277465625 -1.269328125 1.994071875 -2.9969437500000002 1.9901250000000001 -4.7977968749999995ZM12.81765 2.8666968749999997c3.233090625 -3.1678499999999996 8.683059375 -1.647834375 9.809953125 2.73601875 0.501721875 1.9518 -0.031078125 4.0245750000000005 -1.4118187500000001 5.4924937499999995h-7.67105625l4.6553249999999995 -4.6553249999999995c0.24633750000000001 -0.24633750000000001 0.13363125 -0.666975 -0.20287500000000003 -0.757134375 -0.15616875 -0.04185 -0.32280937499999995 0.002803125 -0.437128125 0.11713125l-7.369143750000001 7.369134375V5.462915625Zm-8.054371875000001 8.150493749999999c0.00020625 -0.11905312500000001 0.047334375 -0.23322187499999997 0.131165625 -0.317746875l4.391859375 -4.3421062500000005v7.71628125l-4.5230250000000005 4.5230250000000005Zm8.538337499999999 8.087165624999999c-0.08461874999999999 0.08452499999999999 -0.199265625 0.13209375 -0.318871875 0.1323H5.406675l7.23684375 -7.23684375h7.689140625Z" stroke-width="0.0938"></path></svg>