<svg xmlns="http://www.w3.org/2000/svg" viewBox="0 0 24 24" fill="#000000" id="Fire-Simple-Thin--Streamline-Phosphor-Thin" height="24" width="24"><desc>Fire Simple Thin Streamline Icon: https://streamlinehq.com</desc><path d="M13.449646875 0.34401562500000005c-0.24075000000000002 -0.19946250000000001 -0.606421875 -0.100359375 -0.7135125 0.193359375l-2.730815625 7.485703125L6.776971875 4.89084375c-0.19472812500000003 -0.19183124999999998 -0.513796875 -0.16843125 -0.6784593750000001 0.049753124999999995C3.7125843750000005 8.070571875 2.50153125 11.20845 2.50153125 14.261531249999999c0.0022968750000000003 7.311928125 7.919128124999999 11.879390625 14.250290624999998 8.221434375000001 2.93645625 -1.6965937500000001 4.745578125 -4.83009375 4.746646875 -8.221434375000001 0 -6.531328125 -5.6289750000000005 -11.908134375 -8.048821875 -13.917515625ZM12 22.8553875c-4.74418125 -0.004996875 -8.58886875 -3.849665625 -8.593846875 -8.59385625 0 -2.721759375 1.045959375 -5.532853125 3.1096125 -8.367693749999999l3.3595218749999995 3.26000625c0.23525625 0.22906875 0.62851875 0.13901249999999998 0.7406531249999999 -0.1696125l2.747765625 -7.530928124999999c2.5114406249999996 2.1891749999999996 7.230140625 7.061653124999999 7.230140625 12.808228125000001 -0.004978125 4.74418125 -3.849665625 8.588859375 -8.593846875 8.59385625Z" stroke-width="0.0938"></path></svg>