<svg xmlns="http://www.w3.org/2000/svg" viewBox="-0.75 -0.75 24 24" fill="none" stroke="#000000" stroke-linecap="round" stroke-linejoin="round" id="Grape--Streamline-Lucide" height="24" width="24"><desc>Grape Streamline Icon: https://streamlinehq.com</desc><path d="M20.625 4.6875V1.875l-5.521875 5.521875" stroke-width="1.5"></path><path d="M12.75 14.896875000000001a2.8125 2.8125 0 1 0 5.625 0 2.8125 2.8125 0 1 0 -5.625 0" stroke-width="1.5"></path><path d="M4.790625 6.9375a2.8125 2.8125 0 1 0 5.625 0 2.8125 2.8125 0 1 0 -5.625 0" stroke-width="1.5"></path><path d="M8.765625 10.921875a2.8125 2.8125 0 1 0 5.625 0 2.8125 2.8125 0 1 0 -5.625 0" stroke-width="1.5"></path><path d="M10.228125 5.484375a2.8125 2.8125 0 1 0 5.625 0 2.8125 2.8125 0 1 0 -5.625 0" stroke-width="1.5"></path><path d="M14.203125 9.459375a2.8125 2.8125 0 1 0 5.625 0 2.8125 2.8125 0 1 0 -5.625 0" stroke-width="1.5"></path><path d="M3.3375 12.375a2.8125 2.8125 0 1 0 5.625 0 2.8125 2.8125 0 1 0 -5.625 0" stroke-width="1.5"></path><path d="M7.3125 16.35a2.8125 2.8125 0 1 0 5.625 0 2.8125 2.8125 0 1 0 -5.625 0" stroke-width="1.5"></path><path d="M1.875 17.8125a2.8125 2.8125 0 1 0 5.625 0 2.8125 2.8125 0 1 0 -5.625 0" stroke-width="1.5"></path></svg>