<svg role="img" viewBox="0 0 24 24" xmlns="http://www.w3.org/2000/svg" id="Juce--Streamline-Simple-Icons" height="24" width="24"><desc>Juce Streamline Icon: https://streamlinehq.com</desc><title>JUCE</title><path d="M12 0C5.383 0 0 5.383 0 12s5.383 12 12 12 12 -5.383 12 -12S18.617 0 12 0zm0 22.402c-5.744 0 -10.417 -4.667 -10.417 -10.404S6.256 1.595 12 1.595s10.417 4.666 10.417 10.403S17.744 22.402 12 22.402zm8.097 -5.04a9.77 9.77 0 0 1 -2.5 2.572 1.23 1.23 0 0 1 -1.787 -0.42c-0.97 -1.794 -1.75 -3.59 -2.468 -5.391a0.504 0.504 0 0 1 0.669 -0.648c1.729 0.749 3.503 1.46 5.414 2.04a1.227 1.227 0 0 1 0.672 1.847zm1.615 -5.36c0 0.596 -0.053 1.179 -0.156 1.746a1.235 1.235 0 0 1 -1.559 0.97c-2.01 -0.583 -3.87 -1.324 -5.687 -2.111l0.002 0.001a0.503 0.503 0 0 1 0.013 -0.93c1.802 -0.713 3.606 -1.48 5.416 -2.437 0.727 -0.385 1.62 0.04 1.782 0.846 0.124 0.619 0.19 1.26 0.19 1.915zm-6.847 7.713c0.383 0.726 -0.04 1.61 -0.842 1.78a9.67 9.67 0 0 1 -2.021 0.212 9.702 9.702 0 0 1 -1.607 -0.132 1.233 1.233 0 0 1 -0.98 -1.56c0.583 -2.003 1.322 -3.854 2.107 -5.666a0.503 0.503 0 0 1 0.93 0.014h0.002c0.704 1.78 1.468 3.565 2.411 5.352zM9.181 4.276a1.232 1.232 0 0 1 0.844 -1.782 9.745 9.745 0 0 1 3.692 -0.05c0.722 0.129 1.176 0.852 0.973 1.557 -0.585 2.028 -1.33 3.9 -2.125 5.73a0.503 0.503 0 0 1 -0.93 -0.013h-0.001c-0.715 -1.81 -1.49 -3.623 -2.453 -5.442zm-5.374 2.51a9.759 9.759 0 0 1 2.635 -2.747 1.233 1.233 0 0 1 1.787 0.42c1.021 1.88 1.83 3.763 2.578 5.65a0.504 0.504 0 0 1 -0.668 0.648c-1.802 -0.783 -3.644 -1.53 -5.64 -2.13a1.234 1.234 0 0 1 -0.692 -1.842zm6.864 7.223c-0.763 1.753 -1.486 3.55 -2.072 5.488a1.23 1.23 0 0 1 -1.838 0.679 9.77 9.77 0 0 1 -2.662 -2.53 1.23 1.23 0 0 1 0.414 -1.794c1.834 -0.99 3.67 -1.783 5.51 -2.513a0.504 0.504 0 0 1 0.648 0.668v0.002zm2.72 -3.872c0.775 -1.777 1.51 -3.6 2.103 -5.57a1.23 1.23 0 0 1 1.85 -0.672A9.791 9.791 0 0 1 20 6.497a1.23 1.23 0 0 1 -0.425 1.779c-1.842 0.998 -3.688 1.796 -5.538 2.53a0.504 0.504 0 0 1 -0.648 -0.67zm-9.098 4.78a1.229 1.229 0 0 1 -1.773 -0.81 9.735 9.735 0 0 1 -0.103 -3.683 1.234 1.234 0 0 1 1.56 -0.981c2.02 0.584 3.888 1.328 5.713 2.119a0.503 0.503 0 0 1 -0.014 0.93c-1.79 0.71 -3.585 1.474 -5.383 2.425z" fill="#000000" stroke-width="1"></path></svg>