<svg xmlns="http://www.w3.org/2000/svg" viewBox="0 0 24 24" fill="#000000" id="Leaf-Thin--Streamline-Phosphor-Thin" height="24" width="24"><desc>Leaf Thin Streamline Icon: https://streamlinehq.com</desc><path d="M23.6900625 0.790565625c-0.015121875 -0.25892812499999995 -0.22169999999999998 -0.46550625 -0.48062812499999996 -0.48062812499999996C13.669743749999999 -0.251221875 6.05128125 2.5903593750000002 2.8274906250000003 7.909218749999999c-2.203725 3.6507281249999997 -2.0886843749999997 7.972546874999999 0.32723437499999997 12.21255L0.38984062499999994 22.8866625c-0.27847500000000003 0.27847500000000003 -0.151059375 0.7539750000000001 0.229340625 0.855909375 0.17654999999999998 0.04730625000000001 0.364921875 -0.0031687499999999997 0.49415624999999996 -0.13241250000000002l2.76489375 -2.7661687500000003c2.222896875 1.266759375 4.473928125 1.9033406249999998 6.625246875 1.9033406249999998 1.972228125 0.001790625 3.9063093749999998 -0.543346875 5.58729375 -1.574821875 5.31886875 -3.2237906249999995 8.160449999999999 -10.843528124999999 7.599290625 -20.381943749999998Zm-8.1336 19.507603125c-3.2429625 1.9647000000000001 -7.102040625 1.8854437499999999 -10.92661875 -0.20579999999999998L16.4538 8.269696875c0.27847500000000003 -0.27847500000000003 0.15106875 -0.753984375 -0.229340625 -0.855909375 -0.176540625 -0.04730625000000001 -0.3649125 0.0031687499999999997 -0.49415624999999996 0.132403125L3.9076312499999997 19.370146875c-2.09124375 -3.82456875 -2.1730593750000002 -7.683646875 -0.20580937500000002 -10.926609375C6.675075 3.53371875 13.754109374999999 0.878765625 22.694296875 1.305703125c0.4269375 8.9401875 -2.228015625 16.019221875 -7.137834375 18.992465625Z" stroke-width="0.0938"></path></svg>