<svg xmlns="http://www.w3.org/2000/svg" viewBox="0 0 24 24" fill="#000000" id="Lightbulb-Filament-Thin--Streamline-Phosphor-Thin" height="24" width="24"><desc>Lightbulb Filament Thin Streamline Icon: https://streamlinehq.com</desc><path d="M16.790634375 23.324493750000002c0 0.240525 -0.19498125 0.43550625000000004 -0.43550625000000004 0.43550625000000004H7.644984375c-0.33525937499999997 0 -0.544790625 -0.362925 -0.37716562500000006 -0.653259375 0.07779375 -0.134746875 0.22156874999999998 -0.21775312500000002 0.37716562500000006 -0.21775312500000002h8.71014375c0.240525 0 0.43550625000000004 0.19498125 0.43550625000000004 0.43550625000000004Zm4.35508125 -13.9362375c0.006825 2.808459375 -1.2833625 5.462775 -3.496040625 7.1924062499999994 -0.5393249999999999 0.414525 -0.85648125 1.055278125 -0.859040625 1.7354906250000002v0.6532687500000001c0 0.721546875 -0.584971875 1.306490625 -1.30651875 1.30651875H8.515996874999999c-0.72159375 0.000028125 -1.30651875 -0.584925 -1.30651875 -1.30651875v-0.6532687500000001c-0.00024375 -0.6735656250000001 -0.3121875 -1.309115625 -0.844884375 -1.72134375 -2.2078781249999997 -1.718653125 -3.502378125 -4.357453125 -3.510196875 -7.155384375000001 -0.027215625 -4.950628125 3.97618125 -9.07815 8.92790625 -9.196828125 5.1358218749999995 -0.122315625 9.364865625 4.008375 9.3634125 9.145659375000001Zm-0.8710218750000001 0c0.00136875 -4.649353125 -3.8269874999999995 -8.3872125 -8.474971875 -8.274646875 -4.481371875 0.10888125 -8.099353125 3.840084375 -8.074312500000001 8.32145625 0.00811875 2.53029375 1.179253125 4.916315625 3.175940625 6.470559375000001 0.744571875 0.57800625 1.179890625 1.4679375 1.179140625 2.410528125v0.6532687500000001c0 0.240515625 0.19498125 0.43550625000000004 0.43550625000000004 0.43550625000000004h3.0485531249999998v-5.48086875l-3.356671875 -3.356671875c-0.237196875 -0.2371875 -0.128671875 -0.64220625 0.1953375 -0.72901875 0.150375 -0.04029375 0.31081875 0.0027 0.42090000000000005 0.11278125l3.175940625 3.1759312500000005 3.175940625 -3.1759312500000005c0.2371875 -0.237196875 0.64220625 -0.128671875 0.72901875 0.1953375 0.04029375 0.150375 -0.0027 0.31081875 -0.11278125 0.42090000000000005l-3.356671875 3.356671875v5.48086875h3.0485531249999998c0.240525 0 0.43550625000000004 -0.19499062499999997 0.43550625000000004 -0.43550625000000004v-0.6532687500000001c0.002409375 -0.9464062500000001 0.44206875 -1.8385875 1.1911125 -2.4170625 2.00334375 -1.5653625 3.17113125 -3.96845625 3.163959375 -6.510834375Z" stroke-width="0.0938"></path></svg>