<svg xmlns="http://www.w3.org/2000/svg" viewBox="0 0 24 24" fill="#000000" id="Moon-Stars-Thin--Streamline-Phosphor-Thin" height="24" width="24"><desc>Moon Stars Thin Streamline Icon: https://streamlinehq.com</desc><path d="M23.759999999999998 8.70735c0 0.259828125 -0.210646875 0.470465625 -0.470475 0.470475h-2.352365625v2.352365625c-0.000515625 0.362175 -0.39289687500000003 0.587971875 -0.706284375 0.40644375 -0.14504062499999998 -0.084009375 -0.23443124999999998 -0.238828125 -0.234665625 -0.40644375V9.177825H17.64384375c-0.362175 -0.000515625 -0.587971875 -0.39289687500000003 -0.40644375 -0.706284375 0.084009375 -0.14504062499999998 0.238828125 -0.23443124999999998 0.40644375 -0.234665625h2.352365625V5.8845093749999995c0.000515625 -0.362175 0.39289687500000003 -0.587971875 0.706284375 -0.40644375 0.14504062499999998 0.084009375 0.23443124999999998 0.2388375 0.234665625 0.40644375V8.236875h2.352365625c0.259828125 0.000009375 0.470475 0.210646875 0.470475 0.470475ZM12.939103124999999 3.532134375h1.411425v1.411425c0.00050625 0.362175 0.39288750000000006 0.587971875 0.706284375 0.40644375 0.14503125 -0.084009375 0.234421875 -0.2388375 0.234665625 -0.40644375V3.5321437500000004h1.411415625c0.362175 -0.000515625 0.587971875 -0.39289687500000003 0.40644375 -0.70629375 -0.084009375 -0.14503125 -0.2388375 -0.234421875 -0.40644375 -0.23465625h-1.411415625V1.17976875c-0.000515625 -0.36216562500000005 -0.39289687500000003 -0.587971875 -0.70629375 -0.40644375 -0.14503125 0.084009375 -0.234421875 0.2388375 -0.23465625 0.40644375v1.411425h-1.411425c-0.36216562500000005 0.00050625 -0.587971875 0.39288750000000006 -0.40644375 0.706284375 0.084009375 0.14504062499999998 0.2388375 0.234421875 0.40644375 0.234665625Zm8.20153125 12.182915625c0.111328125 0.129975 0.143315625 0.310134375 0.0835125 0.470475 -2.860753125 7.823287500000001 -13.117678125 9.61599375 -18.46246875 3.226865625C-2.048615625 13.662196875 0.3042375 4.881225000000001 7.345171875 2.306559375c0.34036875 -0.12376875000000001 0.687075 0.16733437499999998 0.624084375 0.523978125 -0.000590625 0.003346875 -0.00121875 0.006675 -0.001884375 0.010003125 -0.13539374999999998 0.692821875 -0.203540625 1.3971 -0.203475 2.1030187500000004 0.0064781249999999995 5.9735249999999995 4.8473625 10.814409375 10.820896874999999 10.820896874999999 0.7071375 -0.000103125 1.41260625 -0.06864375 2.10654375 -0.20465624999999998 0.16681875000000002 -0.03328125 0.338615625 0.02608125 0.44929687500000004 0.15525937499999998Zm-1.1126624999999999 0.9021375C12.428296875000001 17.557265625 5.9710875 11.10005625 6.911165625 3.50038125 0.009534375 6.696075 -0.844546875 16.16461875 5.373815625000001 20.54375625c5.0400374999999995 3.5493375 12.064012499999999 1.6672687499999999 14.65415625 -3.9265687500000004Z" stroke-width="0.0938"></path></svg>