<svg xmlns="http://www.w3.org/2000/svg" viewBox="0 0 24 24" fill="#000000" id="Moon-Thin--Streamline-Phosphor-Thin" height="24" width="24"><desc>Moon Thin Streamline Icon: https://streamlinehq.com</desc><path d="M23.623528125 14.771765624999999c-0.12560625 -0.12586875 -0.310453125 -0.172078125 -0.480515625 -0.12013125000000001C14.99199375 17.115215624999998 7.2306937499999995 9.831215624999999 9.1726875 1.540434375c0.053409374999999995 -0.22802812500000003 0.11404687499999999 -0.4543125 0.181828125 -0.678496875 0.108853125 -0.353521875 -0.20580937500000002 -0.692315625 -0.5664 -0.6098250000000001 -0.011521874999999999 0.002634375 -0.022949999999999998 0.0057 -0.034246875 0.009178125 -2.4360375000000003 0.747440625 -4.574128125 2.244440625 -6.1098 4.277821875 -5.548556250000001 7.398075 -1.00775625 18.028359375 8.17344375 19.134515625 3.072365625 0.370153125 6.169059375 -0.4596 8.644725000000001 -2.316346875 2.032696875 -1.536346875 3.5288531250000004 -3.67485 4.275421875 -6.111 0.051084375 -0.16715625 0.0073875 -0.348871875 -0.11413125 -0.474515625Zm-4.7355093749999995 5.822690625c-6.79785 5.115825 -16.584553125 0.9543375000000001 -17.616065624999997 -7.490690625 -0.346696875 -2.83845 0.4202625 -5.700806249999999 2.139740625 -7.985625000000001 1.233225 -1.6307999999999998 2.890321875 -2.891896875 4.790775 -3.6459375 -1.8921281250000002 8.5780125 5.753475 16.223615625 14.331487500000001 14.331478125 -0.754040625 1.9004531249999999 -2.015146875 3.55755 -3.6459375 4.790775Z" stroke-width="0.0938"></path></svg>