<svg xmlns="http://www.w3.org/2000/svg" viewBox="0 0 24 24" fill="#000000" id="Orange-Thin--Streamline-Phosphor-Thin" height="24" width="24"><desc>Orange Thin Streamline Icon: https://streamlinehq.com</desc><path d="M14.902481250000001 6.6119812499999995c2.53531875 -0.8803125 4.236215625 -3.26821875 4.2395812500000005 -5.952009375 0 -0.23193750000000002 -0.188025 -0.41996249999999996 -0.41996249999999996 -0.419971875h-0.83994375c-2.606728125 0.00335625 -4.942978125 1.6095374999999998 -5.8795593749999995 4.042199999999999C11.066015624999999 1.8495375 8.729756250000001 0.24336562499999997 6.123028124999999 0.24H5.28309375c-0.32329687500000004 0 -0.52535625 0.349978125 -0.363703125 0.629953125 0.07501875 0.12994687500000002 0.21365625 0.209990625 0.363703125 0.20998124999999998h0.8399343750000001c2.8550343750000002 0.00384375 5.226178125 2.204371875 5.442796875 5.051184375 -6.780928124999999 0.3337125 -10.657753125 7.88285625 -6.97828125 13.588453125000001 3.6794624999999996 5.7055968749999995 12.155625 5.28845625 15.257090625 -0.750853125 2.44708125 -4.765068749999999 0.11598750000000001 -10.59343125 -4.942153125 -12.356737500000001Zm2.9796750000000003 -5.532046875h0.404221875c-0.22285312499999999 2.842415625 -2.5927125 5.03630625 -5.443846875 5.039634375h-0.404221875c0.22285312499999999 -2.842415625 2.592721875 -5.03630625 5.443846875 -5.039634375Zm-5.8795593749999995 21.8383875c-6.14255625 0 -9.981646875 -6.649509375 -6.910378125 -11.96911875 3.071278125 -5.3196 10.74946875 -5.3196 13.820746875000001 0 0.7003406249999999 1.21303125 1.069040625 2.589028125 1.069040625 3.989709375 -0.00463125 4.404984375 -3.574425 7.974778125 -7.9794093749999995 7.9794093749999995Zm5.453296875 -7.070175c-0.40927499999999994 2.320303125 -2.2243312499999996 4.1378812499999995 -4.5440625 4.5503625 -0.022959375 0.0032812500000000003 -0.04610625 0.005034375 -0.0693 0.00525 -0.323278125 0.0024375 -0.5279812500000001 -0.34599375 -0.36845625000000004 -0.6271875 0.063 -0.11104687500000002 0.173090625 -0.187396875 0.299165625 -0.20750625 1.9665 -0.34858125 3.5061843749999997 -1.887853125 3.855309375 -3.854259375 0.037246875 -0.321140625 0.40816874999999997 -0.4815375 0.6676593749999999 -0.28871250000000004 0.132684375 0.09858750000000001 0.19518749999999999 0.26585625 0.159684375 0.427303125Z" stroke-width="0.0938"></path></svg>