<svg xmlns="http://www.w3.org/2000/svg" viewBox="0 0 24 24" fill="#000000" id="Orange-Slice-Thin--Streamline-Phosphor-Thin" height="24" width="24"><desc>Orange Slice Thin Streamline Icon: https://streamlinehq.com</desc><path d="M23.380640624999998 5.930325H0.61935C0.40983749999999997 5.930315625 0.24 6.1001625 0.24 6.309675c0 9.05285625 9.799996875 14.710884375 17.64 10.18445625 3.6385593750000003 -2.1007218749999996 5.88 -5.9830125 5.88 -10.18445625 0 -0.209503125 -0.169846875 -0.379340625 -0.379359375 -0.37935ZM6.64445625 12.202003125l4.976184375000001 -4.976184375000001v7.04083125c-1.848740625 -0.086840625 -3.6089906249999997 -0.817171875 -4.976184375000001 -2.064646875Zm-0.536784375 -0.536784375c-1.2474750000000001 -1.36719375 -1.97780625 -3.127434375 -2.0646375 -4.976184375000001h7.040821874999999Zm6.271678125000001 -4.4394 4.97619375 4.976184375000001c-1.36719375 1.2474750000000001 -3.1274437500000003 1.97780625 -4.97619375 2.064646875Zm5.512978125 4.4394 -4.976184375000001 -4.976184375000001h7.040821874999999c-0.08683125 1.84875 -0.8171625 3.6089906249999997 -2.0646375 4.976184375000001ZM12 17.310965624999998c-5.9253656249999995 -0.006946875 -10.783434375 -4.700334375 -10.994653125000001 -10.62193125h2.276128125c0.297028125 6.710062499999999 7.7465343749999995 10.582303125 13.409099999999999 6.970040624999999 2.39683125 -1.5289875 3.8984249999999996 -4.1298375 4.024153125 -6.970040624999999h2.276128125C22.77969375 12.609168750000002 17.923893749999998 17.301975 12 17.310965624999998Z" stroke-width="0.0938"></path></svg>