<svg xmlns="http://www.w3.org/2000/svg" viewBox="0 0 24 24" fill="#000000" id="Plant-Thin--Streamline-Phosphor-Thin" height="24" width="24"><desc>Plant Thin Streamline Icon: https://streamlinehq.com</desc><path d="M23.722771875 3.09105c-0.012487500000000002 -0.20495625 -0.176203125 -0.368240625 -0.3811875 -0.38017500000000004 -5.0943281250000005 -0.30414375000000005 -9.168778125 1.226690625 -10.90035 4.084584375 -1.1800593750000001 1.9485187499999999 -1.13240625 4.2498375 0.12571875 6.509596875 -0.8878781250000001 0.97531875 -1.4741624999999998 2.186990625 -1.6879781249999999 3.488475l-2.381409375 -2.381409375c0.8749125 -1.62208125 0.8931562499999999 -3.2776125 0.04258125 -4.682728125000001C7.281009375 7.65009375 4.330865625 6.5389687499999996 0.6457125 6.7549125000000005c-0.203840625 0.012862499999999999 -0.366290625 0.17532187500000002 -0.37916250000000007 0.379153125 -0.21594375 3.6831281250000005 0.89518125 6.63328125 2.9744812499999997 7.892409375 0.6673781249999999 0.40970624999999994 1.435078125 0.62656875 2.218190625 0.62653125 0.8643562499999999 -0.0147 1.7114156249999999 -0.24466875 2.4645375 -0.669103125l2.8599187500000003 2.86295625v3.07485c0 0.31216875 0.33793125 0.507271875 0.608278125 0.3511875 0.125465625 -0.07244062500000001 0.20276249999999998 -0.20630625000000002 0.20276249999999998 -0.3511875v-2.9896875c-0.003815625 -1.4971406250000001 0.54860625 -2.942325 1.5500906250000002 -4.055184375 1.164853125 0.644775 2.3388375000000003 0.9691874999999999 3.47124375 0.9691874999999999 1.0667625 0.000196875 2.112759375 -0.2949 3.022125 -0.8526 2.8568812500000003 -1.7325843749999998 4.384678125 -5.807034375 4.08459375 -10.902375ZM3.660740625 14.33203125c-1.750828125 -1.058409375 -2.71089375 -3.579721875 -2.601403125 -6.784331250000001 3.2046093749999995 -0.11050312500000001 5.72593125 0.8505750000000001 6.792440624999999 2.601403125 0.6569437499999999 1.085775 0.6680906249999999 2.3692406249999998 0.04663125 3.658790625l-2.9116218750000002 -2.9055375c-0.231328125 -0.209615625 -0.6028125 -0.09020625 -0.66868125 0.21493125000000002 -0.02758125 0.127771875 0.00811875 0.261 0.09588749999999999 0.35786250000000003l2.906559375 2.906559375c-1.290571875 0.6214500000000001 -2.5740374999999998 0.610303125 -3.6598124999999997 -0.049678125000000004Zm15.556715624999999 -1.034071875c-1.62714375 0.9854062499999999 -3.557409375 0.972225 -5.4826125 -0.025349999999999998l5.8516312500000005 -5.852653125c0.21523124999999999 -0.22610625 0.10497187499999999 -0.600421875 -0.198459375 -0.673753125 -0.13365 -0.032296874999999996 -0.27456562500000004 0.005325 -0.374334375 0.099946875l-5.852653125 5.852653125c-0.9975750000000001 -1.9262156249999998 -1.01379375 -3.8524312499999995 -0.025340625 -5.4826125 1.531846875 -2.53449375 5.178478125 -3.906159375 9.796321875 -3.7145531249999997 0.19261875 4.61784375 -1.1841187499999999 8.264475 -3.7145531249999997 9.796321875Z" stroke-width="0.0938"></path></svg>