<svg xmlns="http://www.w3.org/2000/svg" viewBox="0 0 24 24" fill="#000000" id="Potted-Plant-Thin--Streamline-Phosphor-Thin" height="24" width="24"><desc>Potted Plant Thin Streamline Icon: https://streamlinehq.com</desc><path d="m10.919475 13.273640624999999 2.607178125 -2.602471875c1.058390625 0.5750625 2.1238406249999997 0.8643562499999999 3.1528406249999996 0.8643562499999999 0.9909843749999999 0.0004125 1.9626843750000003 -0.27395625 2.8071 -0.7926187499999999 2.6365781249999998 -1.597003125 4.046596875 -5.34489375 3.7714125000000003 -10.026534375 -0.013856249999999999 -0.237778125 -0.20325000000000001 -0.4276875 -0.44099999999999995 -0.442171875C18.135375 -0.00215625 14.387484375 1.409034375 12.790481250000001 4.0456125c-1.0830937500000002 1.7875125 -1.0584 3.8913656249999997 0.0717375 5.959940625l-2.275546875 2.26966875 -2.0062499999999996 -2.0062499999999996c0.783215625 -1.502915625 0.7890937499999999 -3.081103125 0 -4.377046875C7.39854375 3.93271875 4.627903125 2.8849125 1.178709375 3.0871781250000003c-0.240853125 0.012346875 -0.43335 0.20484375 -0.445696875 0.44570624999999997 -0.20344687500000003 3.45271875 0.8455406249999999 6.223359374999999 2.804746875 7.4087625 0.63553125 0.38687812499999996 1.3657125 0.59038125 2.10973125 0.587990625 0.79438125 -0.010228125000000001 1.57456875 -0.21193125000000002 2.274375 -0.587990625l1.999190625 2.0062406249999998 -1.411190625 1.4112H3.0603c-0.36210937499999996 0.00050625 -0.587878125 0.392821875 -0.406378125 0.706171875 0.084 0.1450125 0.2388 0.23438437500000003 0.406378125 0.23461875000000001h1.504096875l1.6358156249999998 7.35466875c0.14056875000000002 0.647821875 0.715378125 1.1088375 1.378265625 1.105434375h7.89915c0.662446875 0.00285 1.236609375 -0.45805312500000006 1.377084375 -1.105434375l1.6358156249999998 -7.3617187500000005h1.504096875c0.36210937499999996 -0.000515625 0.587878125 -0.39283124999999997 0.406378125 -0.706171875 -0.084 -0.1450125 -0.2388 -0.23439375 -0.406378125 -0.234628125H9.8410875l1.0783875 -1.0783875Zm2.669503125 -8.739984375c1.3665093750000001 -2.2579124999999998 4.618134375 -3.4938843749999995 8.745871874999999 -3.34100625 0.15170625000000001 4.1277375 -1.0830937500000002 7.378190625 -3.340996875 8.745871874999999 -1.538203125 0.9313874999999999 -3.3833343750000004 0.8608312499999999 -5.208478125 -0.19756875000000002 -1.0572187499999999 -1.8239625 -1.127784375 -3.6691031249999995 -0.196396875 -5.207296875Zm-5.9364187500000005 5.4730687499999995c-1.274775 0.727940625 -2.5589625 0.7749843750000001 -3.626765625 0.1270125C2.446434375 9.17765625 1.5726750000000003 6.905634375 1.6491093749999999 4.003275c2.897653125 -0.08114062500000001 5.17438125 0.792628125 6.126928124999999 2.3719875000000004 0.65150625 1.0725 0.6044625 2.3566875 -0.123478125 3.6314624999999996Zm9.878353125 5.29198125 -1.591115625 7.1582718750000005c-0.047896875000000005 0.2149125 -0.238453125 0.36785625 -0.45864375 0.368090625H7.578478125c-0.22063125 0.00030937499999999997 -0.411834375 -0.152746875 -0.459815625 -0.368090625l-1.588771875 -7.164159375Z" stroke-width="0.0938"></path></svg>