<svg xmlns="http://www.w3.org/2000/svg" width="24" height="24" viewBox="0 0 24 24" version="1.1">
	<path d="M2.532 10.511112C1.9636079999999998 10.577544 1.4308079999999999 11.046384000000002 1.28604 11.607456C1.2361920000000002 11.800728 1.2361920000000002 12.199272 1.28604 12.392544000000001C1.4113200000000001 12.878160000000001 1.8284640000000003 13.299 2.34 13.45584C2.478792 13.498392 2.828592 13.5 12 13.5C21.171408000000003 13.5 21.521208 13.498392 21.66 13.45584C22.171536 13.299 22.58868 12.878160000000001 22.71396 12.392544000000001C22.763808 12.199272 22.763808 11.800728 22.71396 11.607456C22.59024 11.127912 22.188048 10.71756 21.672 10.544304C21.544608 10.501536000000002 21.210528 10.499903999999999 12.108 10.497143999999999C6.920400000000001 10.49556 2.6112 10.501848 2.532 10.511112" stroke="none" fill="currentColor" fill-rule="evenodd" stroke-width="0.024"></path>
</svg>