<svg xmlns="http://www.w3.org/2000/svg" viewBox="0 0 24 24" fill="#000000" id="Scroll-Thin--Streamline-Phosphor-Thin" height="24" width="24"><desc>Scroll Thin Streamline Icon: https://streamlinehq.com</desc><path d="M9.822225 9.3866625c0 -0.240553125 0.19499062499999997 -0.43556249999999996 0.435553125 -0.435553125h6.9688875c0.3352875 0.000496875 0.5443125 0.363759375 0.376246875 0.6538875 -0.077775 0.13424999999999998 -0.22109062499999999 0.21699374999999999 -0.376246875 0.217228125h-6.9688875c-0.24056249999999998 0.000009375 -0.435553125 -0.195 -0.435553125 -0.43556249999999996Zm0.435553125 3.92000625h6.9688875c0.3352875 -0.000496875 0.5443125 -0.36376875 0.376246875 -0.6538875 -0.077775 -0.13424999999999998 -0.22109062499999999 -0.21700312500000002 -0.376246875 -0.217228125h-6.9688875c-0.3352875 0.000496875 -0.5443125 0.36376875 -0.376246875 0.6538875 0.077775 0.13424999999999998 0.22109062499999999 0.21699374999999999 0.376246875 0.217228125Zm13.502221875 5.66221875c0 1.6838531249999997 -1.3650375 3.0488906250000003 -3.0488906250000003 3.0488906250000003H8.51555625c-1.6838531249999997 0 -3.0488906250000003 -1.3650375 -3.0488906250000003 -3.0488906250000003V5.0311125c0 -1.6764562500000002 -1.8148125 -2.72424375 -3.2666625 -1.886015625 -0.6738093749999999 0.38902500000000007 -1.0888875 1.107965625 -1.0888875 1.886015625 0 0.8471531250000001 0.6903468749999999 1.388334375 0.69688125 1.3937718749999999 0.268528125 0.20078437500000001 0.219009375 0.616959375 -0.0891375 0.749128125 -0.14342812500000002 0.061509375000000005 -0.3088125 0.0415875 -0.433528125 -0.052237500000000006 -0.04246875 -0.031575 -1.04533125 -0.7992375 -1.04533125 -2.0906625 0 -1.6838531249999997 1.3650375 -3.0488906250000003 3.0488906250000003 -3.0488906250000003H18.09778125c1.6838531249999997 0 3.04888125 1.3650375 3.04888125 3.0488906250000003v11.76h1.30666875c0.0942375 0 0.18594375000000002 0.030571875 0.2613375 0.08711250000000001 0.04246875 0.031575 1.04533125 0.7992375 1.04533125 2.0906625Zm-13.066668750000002 0c0 -0.8471531250000001 -0.69035625 -1.388334375 -0.696890625 -1.3937718749999999 -0.268228125 -0.201178125 -0.21810000000000002 -0.6172875 0.09024375 -0.748996875 0.054075 -0.023100000000000002 0.11229375 -0.03500625 0.17109375 -0.03500625h10.017778125v-11.76c0 -1.20275625 -0.9750281249999999 -2.177775 -2.177775 -2.177775H5.419846875c0.5873625 0.572278125 0.9184218749999999 1.3577062500000001 0.917934375 2.177775v13.937775c0 1.6764562500000002 1.8148125 2.724234375 3.2666625 1.886015625 0.6738093749999999 -0.38902500000000007 1.0888875 -1.107965625 1.0888875 -1.886015625Zm12.195562500000001 0c0 -0.653334375 -0.40725 -1.12155 -0.59889375 -1.30666875H11.195315625000001c0.23941874999999999 0.39395625 0.36703125000000003 0.8456718750000001 0.36913124999999997 1.30666875 0.00028125000000000003 0.8198062500000001 -0.33030000000000004 1.605028125 -0.9168468750000001 2.177775h10.063509374999999c1.20271875 -0.000046875 2.177784375 -0.9750562500000001 2.177784375 -2.177775Z" stroke-width="0.0938"></path></svg>