<svg xmlns="http://www.w3.org/2000/svg" viewBox="0 0 24 24" fill="#000000" id="Shooting-Star-Thin--Streamline-Phosphor-Thin" height="24" width="24"><desc>Shooting Star Thin Streamline Icon: https://streamlinehq.com</desc><path d="M23.709759375 5.825671875c-0.1285125 -0.39751875 -0.48487499999999994 -0.6777 -0.9015 -0.708778125l-4.286446874999999 -0.33860625 -1.649475 -3.9097406249999995c-0.313209375 -0.732946875 -1.302403125 -0.8519812499999999 -1.780546875 -0.214265625 -0.04965 0.066225 -0.09118125 0.138159375 -0.123703125 0.214265625l-1.6505625000000002 3.9097406249999995 -4.2853593750000005 0.33860625c-0.784996875 0.05618437500000001 -1.2147937500000001 0.941090625 -0.7736343750000001 1.5928218750000003 0.052190625 0.0771 0.11466562500000001 0.146709375 0.18569999999999998 0.206896875l3.2662875000000002 2.7523968749999996 -0.9951281249999999 4.114425c-0.10006874999999998 0.400303125 0.05445 0.821109375 0.38977500000000004 1.0615406250000001 0.337471875 0.248146875 0.7911375 0.2687625 1.1497312499999999 0.052265624999999996l3.6647718749999996 -2.210184375 3.67130625 2.210184375c0.35859375000000004 0.21649687499999998 0.8122499999999999 0.19588125 1.1497312499999999 -0.052265624999999996 0.335325 -0.24043124999999999 0.489834375 -0.6612375 0.38977500000000004 -1.0615406250000001l-0.996215625 -4.114425 3.260840625 -2.7523968749999996c0.317034375 -0.26578124999999997 0.44145 -0.6971437500000001 0.314653125 -1.09093125Zm-0.8764500000000001 0.42570937499999995L19.3666875 9.1768875c-0.126253125 0.106396875 -0.18148124999999998 0.275034375 -0.14263125000000001 0.435496875l1.0593656249999999 4.375734375c0.01663125 0.0586125 -0.006740625 0.12122812499999999 -0.05770312500000001 0.154603125 -0.05437499999999999 0.041174999999999996 -0.12861562499999998 0.0442125 -0.186178125 0.007621875l-3.8944968749999997 -2.344096875c-0.1383 -0.0833625 -0.3113625 -0.0833625 -0.4496625 0l-3.8955843750000003 2.344096875c-0.057140625 0.036721875 -0.131165625 0.033675000000000004 -0.185090625 -0.007621875 -0.050803125000000005 -0.033525 -0.07448437499999999 -0.095784375 -0.058790625 -0.154603125l1.05935625 -4.375734375c0.038859375 -0.1604625 -0.01636875 -0.3291 -0.142621875 -0.435496875L9.007115625 6.25138125c-0.048918750000000004 -0.036871875 -0.06830625 -0.10119375 -0.047896875000000005 -0.1589625 0.018750000000000003 -0.06301875 0.07580624999999999 -0.10691250000000001 0.141534375 -0.108871875l4.54993125 -0.3592875c0.16261874999999998 -0.013171875000000001 0.30422812499999996 -0.116128125 0.36691875 -0.266746875l1.7529093750000002 -4.15363125c0.05230312499999999 -0.1152375 0.209746875 -0.13065 0.283396875 -0.027721875 0.006225 0.008690625 0.0115875 0.01798125 0.0160125 0.027721875l1.7529000000000001 4.15363125c0.06331875000000001 0.14976562499999999 0.20480625000000002 0.25179375 0.36691875 0.26456250000000003l4.54993125 0.359296875c0.0654375 0.002090625 0.12210937499999999 0.046021875000000004 0.140446875 0.108871875 0.0225 0.058124999999999996 0.0033281249999999995 0.12411562500000001 -0.046809375 0.16113750000000002Zm-15.484368749999998 4.9179375L0.9851249999999999 17.533134375000003c-0.2371875 0.2371875 -0.642196875 0.1286625 -0.72901875 -0.19534687499999998 -0.04029375 -0.150375 0.0027 -0.31081875 0.11278125 -0.42090000000000005l6.36380625 -6.36380625c0.237196875 -0.237196875 0.64220625 -0.128671875 0.72901875 0.1953375 0.04029375 0.150375 -0.0027 0.31081875 -0.11277187500000001 0.42090000000000005Zm1.176946875 6.045890625c0.169575 0.16998749999999999 0.169575 0.4451625 0 0.6151500000000001l-5.798746875 5.799834375c-0.2371875 0.2371875 -0.642196875 0.128671875 -0.72901875 -0.1953375 -0.04029375 -0.150375 0.0027 -0.31081875 0.11278125 -0.42090000000000005l5.799834375 -5.798746875c0.16998749999999999 -0.169575 0.4451625 -0.169575 0.6151500000000001 0Zm7.94795625 -0.108871875c0.17030625 0.170109375 0.17030625 0.44611875 0 0.6162375l-5.9097937499999995 5.9097937499999995c-0.2371875 0.237196875 -0.642196875 0.128671875 -0.72901875 -0.1953375 -0.04029375 -0.150375 0.0027 -0.31081875 0.11278125 -0.42090000000000005l5.91088125 -5.9097937499999995c0.16964062500000002 -0.1716375 0.44649375 -0.1726125 0.617334375 -0.002184375Z" stroke-width="0.0938"></path></svg>