<svg xmlns="http://www.w3.org/2000/svg" viewBox="0 0 24 24" fill="#000000" id="Solar-Panel-Thin--Streamline-Phosphor-Thin" height="24" width="24"><desc>Solar Panel Thin Streamline Icon: https://streamlinehq.com</desc><path d="M1.9838156249999999 10.693434374999999c0 -0.240525 0.195 -0.43550625000000004 0.435525 -0.435525h1.74208125c0.33526875 0 0.544809375 0.36293437500000003 0.37717500000000004 0.6532875 -0.07779375 0.134746875 -0.22157812500000001 0.2177625 -0.37717500000000004 0.2177625H2.4193406250000002c-0.24054375 0.000009375 -0.435525 -0.19498125 -0.435525 -0.435525Zm4.1657625000000005 -5.234971875c0.23720624999999998 0.23720624999999998 0.6422249999999999 0.12868125 0.7290468750000001 -0.19534687499999998 0.04029375 -0.150375 -0.0027 -0.310828125 -0.11278125 -0.42090937500000003L5.533321875 3.6162093749999995c-0.26821875 -0.20115937500000003 -0.6536062499999999 -0.036534375 -0.6937125000000001 0.29631562499999997 -0.013425 0.11139374999999999 0.016659375 0.223659375 0.08398125000000001 0.31341562500000003Zm5.8512281250000004 -2.1688968749999997c0.24053437500000002 0 0.435525 -0.19498125 0.435525 -0.435515625V1.111959375c0 -0.33525937499999997 -0.36293437500000003 -0.5448000000000001 -0.653278125 -0.37716562500000006 -0.13475625 0.07779375 -0.2177625 0.22156874999999998 -0.2177625 0.37716562500000006v1.742090625c0 0.24054375 0.19498125 0.435534375 0.435515625 0.435525Zm5.5431 2.2962937500000002c0.115546875 0.000084375 0.22638750000000002 -0.045740625 0.3081375 -0.127396875l1.231434375 -1.232521875c0.25989375000000003 -0.211790625 0.19305937499999998 -0.625509375 -0.12030937500000001 -0.7446937499999999 -0.17676562499999998 -0.06721875 -0.37670625 -0.01269375 -0.49486874999999997 0.13496249999999999l-1.232521875 1.2259968749999999c-0.237196875 0.23693437499999997 -0.12896249999999998 0.6417937499999999 0.19483124999999998 0.728746875 0.036946875000000004 0.00991875 0.07503750000000001 0.014934375 0.11329687499999999 0.01490625Zm2.296284375 5.5431h1.742090625c0.33526875 0 0.5448000000000001 -0.36293437500000003 0.37717500000000004 -0.6532875 -0.077803125 -0.134746875 -0.22157812500000001 -0.2177625 -0.37717500000000004 -0.2177625h-1.742090625c-0.33525937499999997 0 -0.5448000000000001 0.36293437500000003 -0.37716562500000006 0.6532875 0.07779375 0.134746875 0.22156874999999998 0.2177625 0.37716562500000006 0.2177625Zm-12.194596875000002 0c0.240525 -0.00001875 0.435525 -0.195 0.435525 -0.435525 0 -3.01738125 3.2664093750000003 -4.903246875 5.879540625 -3.39455625 1.21275 0.7001906250000001 1.95984375 1.9941843750000001 1.95984375 3.39455625 0 0.33526875 0.36293437500000003 0.5448000000000001 0.653278125 0.37717500000000004 0.13475625 -0.077803125 0.2177625 -0.22157812500000001 0.2177625 -0.37717500000000004 -0.0016312499999999999 -3.687909375 -3.99493125 -5.991084375 -7.187934375 -4.1457187499999995 -1.480575 0.855675 -2.39278125 2.4356718749999997 -2.3935312499999997 4.1457187499999995 0 0.24054375 0.19498125 0.435534375 0.435515625 0.435525ZM23.700000000000003 23.10579375c-0.07752187499999999 0.134278125 -0.220584375 0.21720937499999998 -0.3756375 0.2177625H0.67725c-0.33525937499999997 0.00133125 -0.54624375 -0.36076874999999997 -0.3797625 -0.651778125 0.00028125000000000003 -0.00050625 0.000571875 -0.001003125 0.0008625 -0.0015093749999999999l4.43034375 -7.839384375c0.07830000000000001 -0.13562812500000002 0.22338750000000002 -0.218765625 0.37998750000000003 -0.2177625h13.78425c0.156609375 -0.001003125 0.30169687500000003 0.082134375 0.379996875 0.2177625l4.43034375 7.839384375c0.076790625 0.1353375 0.07554374999999999 0.301359375 -0.003271875 0.435525Zm-5.057484375 -7.621621875000001H15.192093750000002l0.568359375 2.613121875h4.3552124999999995Zm-3.7705312500000003 2.613121875 -0.568359375 -2.613121875h-4.602365625l-0.568359375 2.613121875Zm-5.925271875 0.87105 -0.762159375 3.4841625h7.62706875l-0.762159375 -3.4841625Zm-5.05858125 -0.87105h4.355221875l0.56835 -2.613121875H5.35910625ZM1.4274375000000001 22.45250625h5.86756875l0.762159375 -3.4841625h-4.6644375Zm21.153271874999998 0L20.612156249999998 18.968343750000003h-4.662253124999999l0.7567125 3.4841625Z" stroke-width="0.0938"></path></svg>