<svg xmlns="http://www.w3.org/2000/svg" viewBox="0 0 24 24" fill="#000000" id="Sparkle-Thin--Streamline-Phosphor-Thin" height="24" width="24"><desc>Sparkle Thin Streamline Icon: https://streamlinehq.com</desc><path d="m18.740859375 12.925406250000002 -5.602959374999999 -2.06330625 -2.06330625 -5.602959374999999c-0.334340625 -0.9045 -1.522453125 -1.10788125 -2.13860625 -0.366084375 -0.09068437500000001 0.109171875 -0.16215000000000002 0.23295937500000002 -0.21135937500000002 0.366084375l-2.06330625 5.602959374999999 -5.602959374999999 2.06330625c-0.9045 0.334340625 -1.10788125 1.522453125 -0.366084375 2.13860625 0.109171875 0.09068437500000001 0.23296875 0.16215000000000002 0.366084375 0.21135937500000002l5.602959374999999 2.06330625 2.06330625 5.602959374999999c0.334340625 0.9045 1.522453125 1.10788125 2.13860625 0.366084375 0.09068437500000001 -0.109171875 0.16215000000000002 -0.23296875 0.21135937500000002 -0.366084375l2.06330625 -5.602959374999999 5.602959374999999 -2.06330625c0.9045 -0.334340625 1.10788125 -1.522453125 0.366084375 -2.13860625 -0.109171875 -0.09068437500000001 -0.23296875 -0.16215000000000002 -0.366084375 -0.21135937500000002ZM18.450000000000003 14.486803125000002l-5.783559374999999 2.13365625c-0.11538749999999999 0.042525 -0.206334375 0.133471875 -0.248859375 0.248859375l-2.13155625 5.783559374999999c-0.109171875 0.29745937499999997 -0.49940625 0.36519375 -0.7024312500000001 0.121921875 -0.030290625 -0.0363 -0.054103124999999995 -0.077540625 -0.070396875 -0.121921875l-2.13365625 -5.785659375c-0.042571875 -0.11415 -0.132609375 -0.2041875 -0.246759375 -0.246759375l-5.783559374999999 -2.13155625c-0.29745937499999997 -0.109171875 -0.36519375 -0.49940625 -0.121921875 -0.7024312500000001 0.036290625 -0.030290625 0.077540625 -0.054103124999999995 0.121921875 -0.070396875l5.783559374999999 -2.13575625c0.11415 -0.042571875 0.2041875 -0.132609375 0.246759375 -0.246759375L9.511096875 5.550000000000001c0.109171875 -0.29745937499999997 0.49940625 -0.36519375 0.7024312500000001 -0.121921875 0.030290625 0.036290625 0.054103124999999995 0.077540625 0.070396875 0.121921875l2.13575625 5.783559374999999c0.042525 0.11538749999999999 0.133471875 0.206334375 0.248859375 0.248859375l5.783559374999999 2.13155625c0.29745937499999997 0.109171875 0.36519375 0.49940625 0.121921875 0.7024312500000001 -0.036290625 0.030290625 -0.077540625 0.054103124999999995 -0.121921875 0.070396875Zm-4.77028125 -11.30671875c0 -0.231965625 0.18804374999999998 -0.420009375 0.420009375 -0.420009375h2.10005625V0.660009375c0.0004875 -0.323325 0.350803125 -0.524878125 0.6305625 -0.36279375 0.129459375 0.074990625 0.209240625 0.2131875 0.20946562500000002 0.36279375v2.100065625h2.10005625c0.323325 0.00047812500000000003 0.5248875 0.35079375 0.362803125 0.630553125 -0.07500000000000001 0.129459375 -0.21319687499999998 0.209240625 -0.362803125 0.20946562500000002H17.0398125v2.10005625c-0.0004875 0.323325 -0.35079375 0.5248875 -0.6305625 0.362803125 -0.12945 -0.07500000000000001 -0.209240625 -0.21319687499999998 -0.20946562500000002 -0.362803125V3.60009375h-2.10005625c-0.231965625 0 -0.420009375 -0.18804374999999998 -0.420009375 -0.420009375ZM23.759999999999998 8.220225c0 0.231965625 -0.18804374999999998 0.420009375 -0.420009375 0.420009375h-1.2600375000000001v1.2600375000000001c-0.0004875 0.323325 -0.35079375 0.524878125 -0.6305625 0.362803125 -0.12945 -0.07500000000000001 -0.209240625 -0.21319687499999998 -0.20946562500000002 -0.362803125V8.640234374999999h-1.260028125c-0.323325 -0.00047812500000000003 -0.5248875 -0.35079375 -0.362803125 -0.6305625 0.07500000000000001 -0.12945 0.2131875 -0.209240625 0.362803125 -0.20945625h1.260028125V6.540178125c0.0004875 -0.323325 0.350803125 -0.524878125 0.6305625 -0.362803125 0.12945 0.07500000000000001 0.209240625 0.21319687499999998 0.20946562500000002 0.362803125v1.2600375000000001h1.2600375000000001c0.231965625 0 0.420009375 0.18804374999999998 0.420009375 0.420009375Z" stroke-width="0.0938"></path></svg>