<svg xmlns="http://www.w3.org/2000/svg" viewBox="0 0 24 24" fill="#000000" id="Star-And-Crescent-Thin--Streamline-Phosphor-Thin" height="24" width="24"><desc>Star And Crescent Thin Streamline Icon: https://streamlinehq.com</desc><path d="M13.807218749999999 4.412409375c0.27823125 -0.14158125 0.298865625 -0.5312625 0.037134375 -0.7014281250000001 -0.011990625000000001 -0.0078 -0.024384375 -0.014953125000000001 -0.037134375 -0.021440624999999998 -1.311871875 -0.672515625 -2.76568125 -1.021190625 -4.23988125 -1.0168875 -7.180190625 0 -11.66780625 7.7727843750000005 -8.07770625 13.991006250000002 1.6661625 2.8858875 4.745371875 4.66366875 8.07770625 4.66366875 1.473946875 0.00525 2.927746875 -0.34238437499999996 4.23988125 -1.0138406249999998 0.27823125 -0.14158125 0.298865625 -0.5312625 0.03714375 -0.7014281250000001 -0.012 -0.0078 -0.02439375 -0.014953125000000001 -0.03714375 -0.021440624999999998 -5.8409249999999995 -2.976975 -6.268828125000001 -11.16058125 -0.7702312499999999 -14.730478125000001 0.24882187500000003 -0.16155 0.505921875 -0.30998437500000003 0.7702312499999999 -0.44469375Zm-5.45649375 7.58758125c-0.007303125 3.2166562499999998 1.649925 6.208181250000001 4.38080625 7.9079625 -1.0058625 0.40412812499999995 -2.08018125 0.610659375 -3.16419375 0.608296875 -6.555825 -0.00219375 -10.6508625 -7.100446875 -7.371046874999999 -12.776859374999999 1.5211406250000001 -2.63266875 4.330509375 -4.254646875 7.371046874999999 -4.25566875 1.0840125 -0.002353125 2.1583312500000003 0.20417812500000002 3.16419375 0.60830625 -2.73088125 1.6997718750000002 -4.388109375 4.69130625 -4.38080625 7.9079625Zm15.1650375 -0.372084375 -2.910740625 -1.257159375 -0.252440625 -3.268621875c-0.023315625 -0.311315625 -0.374878125 -0.48064687500000003 -0.6328312500000001 -0.304809375 -0.031875 0.02173125 -0.0604875 0.047896875000000005 -0.084975 0.077709375l-2.0469468749999997 2.47985625 -3.0526687499999996 -0.756328125c-0.303028125 -0.075065625 -0.573675 0.20604375 -0.48717187500000003 0.50600625 0.009403125 0.032615624999999995 0.022865625 0.06391875 0.04006875 0.093178125l1.6454625 2.802253125 -1.649521875 2.802253125c-0.158221875 0.26911875 0.034209375 0.6085968749999999 0.346378125 0.6110718749999999 0.033937499999999995 0.0002625 0.06778125 -0.00373125 0.10072500000000001 -0.011887499999999999l3.0567281250000002 -0.756328125 2.0469468749999997 2.47985625c0.07723125 0.0933375 0.192140625 0.14725312499999998 0.313275 0.147009375 0.041325 0.000121875 0.08240625 -0.0063750000000000005 0.12166875 -0.019265624999999998 0.15782812499999999 -0.04951875 0.269765625 -0.18994687500000002 0.2828625 -0.35484375l0.252440625 -3.268621875 2.910740625 -1.25716875c0.28642500000000004 -0.12416250000000001 0.33103125 -0.5118281250000001 0.08028750000000001 -0.6978 -0.024909374999999997 -0.01846875 -0.05184375000000001 -0.034021875 -0.08028750000000001 -0.046359375Zm-3.4572000000000003 1.3534781249999999c-0.137971875 0.059681250000000005 -0.23161875 0.19078125 -0.24331875000000003 0.34065l-0.19466250000000002 2.511290625 -1.570434375 -1.901971875c-0.07700625 -0.09305625000000001 -0.19148437499999998 -0.14694374999999998 -0.3122625 -0.14700000000000002 -0.034181249999999996 -0.000234375 -0.068240625 0.0038531249999999998 -0.10139062499999998 0.012159375l-2.3683312499999998 0.586003125 1.28555625 -2.179753125c0.074803125 -0.1270125 0.074803125 -0.284615625 0 -0.41161875000000003l-1.281496875 -2.173678125 2.3683312499999998 0.586003125c0.14981250000000002 0.0357 0.306928125 -0.0165375 0.405534375 -0.134840625L19.61653125 8.16665625l0.19871250000000001 2.5153406250000003c0.011699999999999999 0.149878125 0.1053375 0.280978125 0.24331875000000003 0.34065l2.273034375 0.9773437500000001Z" stroke-width="0.0938"></path></svg>