<svg xmlns="http://www.w3.org/2000/svg" viewBox="0 0 24 24" fill="#000000" id="Sun-Dim-Thin--Streamline-Phosphor-Thin" height="24" width="24"><desc>Sun Dim Thin Streamline Icon: https://streamlinehq.com</desc><path d="M11.5296 1.6512V0.7104c0 -0.36211875 0.391996875 -0.58843125 0.7056 -0.40738125 0.145546875 0.084028125 0.2352 0.239325 0.2352 0.40738125v0.9408c0 0.36211875 -0.391996875 0.58843125 -0.7056 0.40738125 -0.145546875 -0.084028125 -0.2352 -0.239325 -0.2352 -0.40738125ZM19.056 12c0 5.431715625 -5.88 8.826534375 -10.584 6.1106718749999995 -4.704000000000001 -2.715853125 -4.704000000000001 -9.505490625 0 -12.221343749999999C9.54465 5.270034375 10.761412499999999 4.944 12 4.944c3.895040625 0.0045375 7.0514624999999995 3.160959375 7.055999999999999 7.055999999999999Zm-0.9408 0c0 -4.7074875 -5.095996875 -7.6496625 -9.172799999999999 -5.29591875 -4.076803125 2.35374375 -4.076803125 8.23809375 0 10.5918375 0.929625 0.5367187499999999 1.9841625 0.8192812500000001 3.0576000000000003 0.8192812500000001 3.375721875 -0.003890625 6.111309374999999 -2.7394781249999998 6.115200000000001 -6.115200000000001ZM4.140796875 4.8064125c0.256190625 0.256190625 0.69365625 0.138975 0.787425 -0.21099374999999998 0.04351875 -0.162421875 -0.002915625 -0.33572812500000004 -0.121809375 -0.45462187500000006L3.8656124999999997 3.199996875c-0.2562 -0.2562 -0.693665625 -0.138984375 -0.787434375 0.210984375 -0.04351875 0.162421875 0.002915625 0.33572812500000004 0.12181875 0.45463125000000004Zm0 14.387184375 -0.9408 0.9408c-0.2562 0.256190625 -0.138984375 0.69365625 0.210984375 0.787425 0.162421875 0.04351875 0.33572812500000004 -0.002915625 0.45463125000000004 -0.121809375l0.9408 -0.9408c0.256190625 -0.2562 0.138975 -0.693665625 -0.21099374999999998 -0.787434375 -0.162421875 -0.04351875 -0.33572812500000004 0.002915625 -0.45462187500000006 0.12181875ZM20.134396875 3.199996875l-0.9408 0.9408c-0.2562 0.256190625 -0.138984375 0.69365625 0.210984375 0.787425 0.162421875 0.04351875 0.33572812500000004 -0.002915625 0.45463125000000004 -0.121809375l0.9408 -0.9408c0.256190625 -0.2562 0.138975 -0.693665625 -0.21099374999999998 -0.787434375 -0.162421875 -0.04351875 -0.33572812500000004 0.002915625 -0.45462187500000006 0.12181875Zm-0.275184375 15.9936c-0.2562 -0.2562 -0.693665625 -0.138984375 -0.787434375 0.210984375 -0.04351875 0.162421875 0.002915625 0.33572812500000004 0.12181875 0.45463125000000004l0.9408 0.9408c0.256190625 0.256190625 0.69365625 0.138975 0.787425 -0.21099374999999998 0.04351875 -0.162421875 -0.002915625 -0.33572812500000004 -0.121809375 -0.45462187500000006ZM1.6512 11.5296H0.7104c-0.36211875 0.00001875 -0.588440625 0.39202500000000007 -0.407371875 0.70561875 0.0840375 0.145528125 0.239325 0.23518125 0.407371875 0.23518125h0.9408c0.36211875 0 0.58843125 -0.391996875 0.40738125 -0.7056 -0.084028125 -0.1455375 -0.23933437500000002 -0.23519062500000001 -0.40738125 -0.2352ZM12 21.8784c-0.259790625 0 -0.4704 0.21060937500000002 -0.4704 0.4704v0.9408c0 0.36211875 0.391996875 0.58843125 0.7056 0.40738125 0.145546875 -0.084028125 0.2352 -0.239325 0.2352 -0.40738125v-0.9408c0 -0.259790625 -0.21060937500000002 -0.4704 -0.4704 -0.4704Zm11.2896 -10.3488h-0.9408c-0.36211875 0 -0.58843125 0.391996875 -0.40738125 0.7056 0.084028125 0.1455375 0.23933437500000002 0.23519062500000001 0.40738125 0.2352h0.9408c0.36211875 -0.00001875 0.588440625 -0.39202500000000007 0.407371875 -0.70561875 -0.0840375 -0.145528125 -0.239325 -0.23518125 -0.407371875 -0.23518125Z" stroke-width="0.0938"></path></svg>