<svg xmlns="http://www.w3.org/2000/svg" viewBox="0 0 24 24" fill="#000000" id="Tree-Evergreen-Thin--Streamline-Phosphor-Thin" height="24" width="24"><desc>Tree Evergreen Thin Streamline Icon: https://streamlinehq.com</desc><path d="m21.29625 17.769375 -4.78125 -6.144375H19.5a0.375 0.375 0 0 0 0.2971875 -0.60375l-7.5 -9.75a0.375 0.375 0 0 0 -0.594375 0l-7.5 9.75A0.375 0.375 0 0 0 4.5 11.625h2.9831250000000002l-4.78125 6.144375A0.375 0.375 0 0 0 3 18.375h8.625v4.125a0.375 0.375 0 0 0 0.75 0v-4.125h8.625a0.375 0.375 0 0 0 0.29625 -0.605625ZM3.7668749999999998 17.625l4.78125 -6.144375A0.375 0.375 0 0 0 8.25 10.875H5.2612499999999995L12 2.1149999999999998 18.73875 10.875H15.75a0.375 0.375 0 0 0 -0.29625 0.605625l4.78125 6.144375Z" stroke-width="0.0938"></path></svg>