<svg xmlns="http://www.w3.org/2000/svg" viewBox="0 0 24 24" fill="#000000" id="Tree-Palm-Thin--Streamline-Phosphor-Thin" height="24" width="24"><desc>Tree Palm Thin Streamline Icon: https://streamlinehq.com</desc><path d="M23.641021875 3.72515625c-2.706946875 -2.906521875 -7.311215625 -2.906521875 -10.018153125 0 -0.7231124999999999 0.762271875 -1.276134375 1.6693875 -1.622503125 2.6613375 -0.34944375 -0.993290625 -0.9062343749999999 -1.900865625 -1.6333968749999999 -2.662425C7.660640624999999 0.8256281249999999 3.0654093749999998 0.826125 0.359709375 3.72515625c-0.208003125 0.21906562499999999 -0.13528125000000002 0.578203125 0.1415625 0.69909375l7.4548125 3.24283125c-0.45800624999999995 0.03478125 -0.9118312500000001 0.11169375000000001 -1.35571875 0.2297625 -1.895109375 0.4971 -3.513271875 1.7303250000000001 -4.495096875 3.425765625 -0.9862125 1.68455625 -1.25308125 3.6950906249999997 -0.740475 5.578584375 0.03755625 0.140221875 0.14250000000000002 0.25250625 0.27985312500000004 0.29945625 0.0453 0.015084374999999999 0.092728125 0.022809375 0.140475 0.022875 0.09561562500000001 0.000084375 0.188596875 -0.031293749999999995 0.264609375 -0.089296875l9.515062499999999 -7.24573125v12.13066875c0 0.33530625000000003 0.362971875 0.5448656249999999 0.653353125 0.3772125 0.134775 -0.077803125 0.21779062500000002 -0.22159687500000003 0.21779062500000002 -0.3772125V9.888496875l9.515062499999999 7.250090625c0.0760125 0.057993750000000004 0.16899375 0.089371875 0.264609375 0.0892875 0.047746874999999994 -0.00005625 0.09517500000000001 -0.00778125 0.140475 -0.022865625 0.13735312500000002 -0.046950000000000006 0.24229687499999997 -0.15924375000000002 0.27985312500000004 -0.29945625 0.5138343750000001 -1.88484375 0.246928125 -3.89720625 -0.740475 -5.58294375 -0.981825 -1.6954406250000003 -2.599996875 -2.928665625 -4.495096875 -3.425765625 -0.4438875 -0.11806875 -0.8977124999999999 -0.19498125 -1.35571875 -0.2297625l7.4548125 -3.243928125c0.27590625 -0.12107812500000001 0.348496875 -0.478996875 0.1415625 -0.697996875ZM5.36660625 2.418440625c1.659103125 0.00331875 3.2428687500000004 0.6931125 4.375321875 1.9056281249999998 1.022746875 1.0785093749999999 1.65324375 2.469525 1.7901937500000003 3.9495468750000002L1.45081875 3.8863125C2.5360312499999997 2.94028125 3.9269249999999998 2.418890625 5.36660625 2.418440625ZM2.0660625 16.03005c-0.243571875 -1.471490625 0.034921875 -2.9818406250000002 0.78729375 -4.269684375000001 0.867 -1.498171875 2.29681875 -2.5876875 3.9713249999999998 -3.0261375 0.555534375 -0.145875 1.127634375 -0.219084375 1.7020031249999998 -0.21778124999999998 0.9161625 0.000084375 1.822003125 0.193790625 2.6580749999999997 0.5684156250000001Zm19.0813125 -4.269684375000001c0.7523718749999999 1.28784375 1.0308656250000001 2.7981937500000003 0.78729375 4.26969375L12.815971874999999 9.0826875c3.0537093749999995 -1.360978125 6.6424031249999995 -0.20758125 8.331403125000001 2.677678125Zm-8.674415625 -3.4845749999999995c0.135271875 -1.4802374999999999 0.7642499999999999 -2.87203125 1.78584375 -3.9517218749999996 2.1931874999999996 -2.359125 5.86280625 -2.551903125 8.291109375000001 -0.43557187499999994Z" stroke-width="0.0938"></path></svg>