<svg xmlns="http://www.w3.org/2000/svg" viewBox="0 0 24 24" fill="#000000" id="Tree-Thin--Streamline-Phosphor-Thin" height="24" width="24"><desc>Tree Thin Streamline Icon: https://streamlinehq.com</desc><path d="M19.296140625 5.208290625C17.08681875 -0.40660312500000007 9.627684375000001 -1.5242437500000001 5.86970625 3.196528125c-0.48493125000000004 0.6091781249999999 -0.8763937500000001 1.287215625 -1.161496875 2.0117625C2.0002781250000004 6.371090624999999 0.244996875 9.034846875 0.24474374999999998 11.981878125000001c-0.010884375 3.919153125 3.2920781249999997 7.322268750000001 7.21231875 7.42134375 1.450190625 0.0347625 2.8788375 -0.355790625 4.109653125 -1.123490625v5.044809375c0 0.3352125 0.36288750000000003 0.5447249999999999 0.65319375 0.37711874999999995 0.134728125 -0.077784375 0.217725 -0.22154062500000002 0.217725 -0.37711874999999995v-5.043721875c1.175578125 0.7338375 2.5333312500000003 1.123434375 3.91914375 1.124578125h0.18725625c3.91914375 -0.09906562499999999 7.2221062499999995 -3.497840625 7.211221875000001 -7.421334375 0.001078125 -2.946703125 -1.7523468750000002 -5.611096875 -4.459115625 -6.775771875Zm-2.770621875 13.3261875c-1.470684375 0.03609375 -2.9106843749999998 -0.424096875 -4.087884375 -1.3063875v-4.953365625l4.984940625 -2.491921875c0.30001875 -0.150009375 0.32513437500000003 -0.568546875 0.045215625 -0.753365625 -0.129909375 -0.085771875 -0.29571562500000004 -0.095728125 -0.434953125 -0.026109375000000004l-4.595203125 2.294878125V7.647965624999999c0 -0.335221875 -0.362878125 -0.544734375 -0.6531843749999999 -0.37712812500000004 -0.1347375 0.07779375 -0.21773437499999998 0.22155 -0.21773437499999998 0.37712812500000004v6.26300625l-4.59519375 -2.2981406250000003c-0.30001875 -0.150009375 -0.649921875 0.081009375 -0.629821875 0.41584687499999995 0.00931875 0.155390625 0.100846875 0.294009375 0.24008437500000002 0.36362812499999997l4.984931250000001 2.491921875v2.3438625c-1.1766 0.8834437500000001 -2.6170125 1.34375625 -4.087884375 1.3063875 -3.4586437500000002 -0.08709375 -6.372965625000001 -3.0863343750000003 -6.36316875 -6.548240625 0.0006374999999999999 -2.6621812499999997 1.6228875 -5.0554499999999996 4.09550625 -6.04201875 0.114628125 -0.0464625 0.204075 -0.13948125 0.24603750000000002 -0.255834375 1.83909375 -5.0383125 8.442665625 -6.196396875 11.886431250000001 -2.08453125 0.519065625 0.6197625 0.926315625 1.325128125 1.203515625 2.08453125 0.042478125 0.115528125 0.131859375 0.207684375 0.246028125 0.253659375 2.472234375 0.9870562500000001 4.0942687499999995 3.3800250000000003 4.09550625 6.04201875 0.009796875 3.46190625 -2.904515625 6.4611375 -6.363159375 6.55040625Z" stroke-width="0.0938"></path></svg>